<svg width="213" height="88" viewBox="0 0 213 88" fill="none" xmlns="http://www.w3.org/2000/svg">
<path d="M66.448 31.144V34.568H70.784V36.288H66.448V41H64.288V29.432H71.584V31.144H66.448ZM74.2619 34.216C74.5179 33.7253 74.8219 33.3413 75.1739 33.064C75.5259 32.7813 75.9419 32.64 76.4219 32.64C76.8005 32.64 77.1045 32.7227 77.3339 32.888L77.2059 34.368C77.1792 34.464 77.1392 34.5333 77.0859 34.576C77.0379 34.6133 76.9712 34.632 76.8859 34.632C76.8059 34.632 76.6859 34.6187 76.5259 34.592C76.3712 34.5653 76.2192 34.552 76.0699 34.552C75.8512 34.552 75.6565 34.584 75.4859 34.648C75.3152 34.712 75.1605 34.8053 75.0219 34.928C74.8885 35.0453 74.7685 35.1893 74.6619 35.36C74.5605 35.5307 74.4645 35.7253 74.3739 35.944V41H72.3979V32.792H73.5579C73.7605 32.792 73.9019 32.8293 73.9819 32.904C74.0619 32.9733 74.1152 33.1013 74.1419 33.288L74.2619 34.216ZM81.7643 32.664C82.3723 32.664 82.9243 32.7627 83.4203 32.96C83.9216 33.1573 84.3483 33.4373 84.7003 33.8C85.0576 34.1627 85.3322 34.6053 85.5243 35.128C85.7163 35.6507 85.8123 36.2347 85.8123 36.88C85.8123 37.5307 85.7163 38.1173 85.5243 38.64C85.3322 39.1627 85.0576 39.608 84.7003 39.976C84.3483 40.344 83.9216 40.6267 83.4203 40.824C82.9243 41.0213 82.3723 41.12 81.7643 41.12C81.1509 41.12 80.5936 41.0213 80.0923 40.824C79.5909 40.6267 79.1616 40.344 78.8043 39.976C78.4523 39.608 78.1776 39.1627 77.9803 38.64C77.7883 38.1173 77.6923 37.5307 77.6923 36.88C77.6923 36.2347 77.7883 35.6507 77.9803 35.128C78.1776 34.6053 78.4523 34.1627 78.8043 33.8C79.1616 33.4373 79.5909 33.1573 80.0923 32.96C80.5936 32.7627 81.1509 32.664 81.7643 32.664ZM81.7643 39.6C82.4469 39.6 82.9509 39.3707 83.2763 38.912C83.6069 38.4533 83.7723 37.7813 83.7723 36.896C83.7723 36.0107 83.6069 35.336 83.2763 34.872C82.9509 34.408 82.4469 34.176 81.7643 34.176C81.0709 34.176 80.5563 34.4107 80.2203 34.88C79.8896 35.344 79.7243 36.016 79.7243 36.896C79.7243 37.776 79.8896 38.448 80.2203 38.912C80.5563 39.3707 81.0709 39.6 81.7643 39.6ZM89.1678 33.8C89.3331 33.6347 89.5064 33.4827 89.6878 33.344C89.8744 33.2 90.0691 33.08 90.2718 32.984C90.4798 32.8827 90.7011 32.8053 90.9358 32.752C91.1704 32.6933 91.4264 32.664 91.7038 32.664C92.1518 32.664 92.5491 32.7413 92.8958 32.896C93.2424 33.0453 93.5304 33.2587 93.7598 33.536C93.9944 33.808 94.1704 34.136 94.2878 34.52C94.4104 34.8987 94.4718 35.3173 94.4718 35.776V41H92.4958V35.776C92.4958 35.2747 92.3811 34.888 92.1518 34.616C91.9224 34.3387 91.5731 34.2 91.1038 34.2C90.7624 34.2 90.4424 34.2773 90.1438 34.432C89.8451 34.5867 89.5624 34.7973 89.2958 35.064V41H87.3198V32.792H88.5278C88.7838 32.792 88.9518 32.912 89.0318 33.152L89.1678 33.8ZM98.9776 41.128C98.263 41.128 97.7136 40.928 97.3296 40.528C96.951 40.1227 96.7616 39.5653 96.7616 38.856V34.272H95.9216C95.815 34.272 95.7243 34.2373 95.6496 34.168C95.575 34.0987 95.5376 33.9947 95.5376 33.856V33.072L96.8576 32.856L97.2736 30.616C97.3003 30.5093 97.351 30.4267 97.4256 30.368C97.5003 30.3093 97.5963 30.28 97.7136 30.28H98.7376V32.864H100.93V34.272H98.7376V38.72C98.7376 38.976 98.799 39.176 98.9216 39.32C99.0496 39.464 99.223 39.536 99.4416 39.536C99.5643 39.536 99.6656 39.5227 99.7456 39.496C99.831 39.464 99.903 39.432 99.9616 39.4C100.026 39.368 100.082 39.3387 100.13 39.312C100.178 39.28 100.226 39.264 100.274 39.264C100.332 39.264 100.38 39.28 100.418 39.312C100.455 39.3387 100.495 39.3813 100.538 39.44L101.13 40.4C100.842 40.64 100.511 40.8213 100.138 40.944C99.7643 41.0667 99.3776 41.128 98.9776 41.128ZM102.131 35.344H106.275V36.992H102.131V35.344ZM113.452 35.952C113.452 35.696 113.414 35.456 113.34 35.232C113.27 35.0027 113.164 34.8027 113.02 34.632C112.876 34.4613 112.692 34.328 112.468 34.232C112.249 34.1307 111.993 34.08 111.7 34.08C111.129 34.08 110.678 34.2427 110.348 34.568C110.022 34.8933 109.814 35.3547 109.724 35.952H113.452ZM109.684 37.144C109.716 37.5653 109.79 37.9307 109.908 38.24C110.025 38.544 110.18 38.7973 110.372 39C110.564 39.1973 110.79 39.3467 111.052 39.448C111.318 39.544 111.612 39.592 111.932 39.592C112.252 39.592 112.526 39.5547 112.756 39.48C112.99 39.4053 113.193 39.3227 113.364 39.232C113.54 39.1413 113.692 39.0587 113.82 38.984C113.953 38.9093 114.081 38.872 114.204 38.872C114.369 38.872 114.492 38.9333 114.572 39.056L115.14 39.776C114.921 40.032 114.676 40.248 114.404 40.424C114.132 40.5947 113.846 40.7333 113.548 40.84C113.254 40.9413 112.953 41.0133 112.644 41.056C112.34 41.0987 112.044 41.12 111.756 41.12C111.185 41.12 110.654 41.0267 110.164 40.84C109.673 40.648 109.246 40.368 108.884 40C108.521 39.6267 108.236 39.168 108.028 38.624C107.82 38.0747 107.715 37.44 107.715 36.72C107.715 36.16 107.806 35.6347 107.988 35.144C108.169 34.648 108.428 34.2187 108.764 33.856C109.105 33.488 109.518 33.1973 110.004 32.984C110.494 32.7707 111.046 32.664 111.66 32.664C112.177 32.664 112.654 32.7467 113.092 32.912C113.529 33.0773 113.905 33.32 114.22 33.64C114.534 33.9547 114.78 34.344 114.956 34.808C115.137 35.2667 115.227 35.792 115.227 36.384C115.227 36.6827 115.196 36.8853 115.132 36.992C115.068 37.0933 114.945 37.144 114.764 37.144H109.684ZM118.558 33.8C118.724 33.6347 118.897 33.4827 119.078 33.344C119.265 33.2 119.46 33.08 119.662 32.984C119.87 32.8827 120.092 32.8053 120.326 32.752C120.561 32.6933 120.817 32.664 121.094 32.664C121.542 32.664 121.94 32.7413 122.286 32.896C122.633 33.0453 122.921 33.2587 123.15 33.536C123.385 33.808 123.561 34.136 123.678 34.52C123.801 34.8987 123.862 35.3173 123.862 35.776V41H121.886V35.776C121.886 35.2747 121.772 34.888 121.542 34.616C121.313 34.3387 120.964 34.2 120.494 34.2C120.153 34.2 119.833 34.2773 119.534 34.432C119.236 34.5867 118.953 34.7973 118.686 35.064V41H116.71V32.792H117.918C118.174 32.792 118.342 32.912 118.422 33.152L118.558 33.8ZM130.894 34.888C130.67 34.616 130.424 34.424 130.158 34.312C129.896 34.2 129.614 34.144 129.31 34.144C129.011 34.144 128.742 34.2 128.502 34.312C128.262 34.424 128.056 34.5947 127.886 34.824C127.715 35.048 127.584 35.336 127.494 35.688C127.403 36.0347 127.358 36.4453 127.358 36.92C127.358 37.4 127.395 37.808 127.47 38.144C127.55 38.4747 127.662 38.7467 127.806 38.96C127.95 39.168 128.126 39.32 128.334 39.416C128.542 39.5067 128.774 39.552 129.03 39.552C129.44 39.552 129.79 39.4667 130.078 39.296C130.366 39.1253 130.638 38.8827 130.894 38.568V34.888ZM132.87 29.112V41H131.662C131.4 41 131.235 40.88 131.166 40.64L130.998 39.848C130.667 40.2267 130.286 40.5333 129.854 40.768C129.427 41.0027 128.928 41.12 128.358 41.12C127.91 41.12 127.499 41.0267 127.126 40.84C126.752 40.6533 126.43 40.384 126.158 40.032C125.891 39.6747 125.683 39.2347 125.534 38.712C125.39 38.1893 125.318 37.592 125.318 36.92C125.318 36.312 125.4 35.7467 125.566 35.224C125.731 34.7013 125.968 34.248 126.278 33.864C126.587 33.48 126.958 33.1813 127.39 32.968C127.822 32.7493 128.307 32.64 128.846 32.64C129.304 32.64 129.696 32.712 130.022 32.856C130.347 33 130.638 33.1947 130.894 33.44V29.112H132.87ZM143.862 34.888C143.638 34.616 143.393 34.424 143.126 34.312C142.865 34.2 142.582 34.144 142.278 34.144C141.98 34.144 141.71 34.2 141.47 34.312C141.23 34.424 141.025 34.5947 140.854 34.824C140.684 35.048 140.553 35.336 140.462 35.688C140.372 36.0347 140.326 36.4453 140.326 36.92C140.326 37.4 140.364 37.808 140.438 38.144C140.518 38.4747 140.63 38.7467 140.774 38.96C140.918 39.168 141.094 39.32 141.302 39.416C141.51 39.5067 141.742 39.552 141.998 39.552C142.409 39.552 142.758 39.4667 143.046 39.296C143.334 39.1253 143.606 38.8827 143.862 38.568V34.888ZM145.838 29.112V41H144.63C144.369 41 144.204 40.88 144.134 40.64L143.966 39.848C143.636 40.2267 143.254 40.5333 142.822 40.768C142.396 41.0027 141.897 41.12 141.326 41.12C140.878 41.12 140.468 41.0267 140.094 40.84C139.721 40.6533 139.398 40.384 139.126 40.032C138.86 39.6747 138.652 39.2347 138.502 38.712C138.358 38.1893 138.286 37.592 138.286 36.92C138.286 36.312 138.369 35.7467 138.534 35.224C138.7 34.7013 138.937 34.248 139.246 33.864C139.556 33.48 139.926 33.1813 140.358 32.968C140.79 32.7493 141.276 32.64 141.814 32.64C142.273 32.64 142.665 32.712 142.99 32.856C143.316 33 143.606 33.1947 143.862 33.44V29.112H145.838ZM153.077 35.952C153.077 35.696 153.039 35.456 152.965 35.232C152.895 35.0027 152.789 34.8027 152.645 34.632C152.501 34.4613 152.317 34.328 152.093 34.232C151.874 34.1307 151.618 34.08 151.325 34.08C150.754 34.08 150.303 34.2427 149.973 34.568C149.647 34.8933 149.439 35.3547 149.349 35.952H153.077ZM149.309 37.144C149.341 37.5653 149.415 37.9307 149.533 38.24C149.65 38.544 149.805 38.7973 149.997 39C150.189 39.1973 150.415 39.3467 150.677 39.448C150.943 39.544 151.237 39.592 151.557 39.592C151.877 39.592 152.151 39.5547 152.381 39.48C152.615 39.4053 152.818 39.3227 152.989 39.232C153.165 39.1413 153.317 39.0587 153.445 38.984C153.578 38.9093 153.706 38.872 153.829 38.872C153.994 38.872 154.117 38.9333 154.197 39.056L154.765 39.776C154.546 40.032 154.301 40.248 154.029 40.424C153.757 40.5947 153.471 40.7333 153.173 40.84C152.879 40.9413 152.578 41.0133 152.269 41.056C151.965 41.0987 151.669 41.12 151.381 41.12C150.81 41.12 150.279 41.0267 149.789 40.84C149.298 40.648 148.871 40.368 148.509 40C148.146 39.6267 147.861 39.168 147.653 38.624C147.445 38.0747 147.34 37.44 147.34 36.72C147.34 36.16 147.431 35.6347 147.613 35.144C147.794 34.648 148.053 34.2187 148.389 33.856C148.73 33.488 149.143 33.1973 149.629 32.984C150.119 32.7707 150.671 32.664 151.285 32.664C151.802 32.664 152.279 32.7467 152.717 32.912C153.154 33.0773 153.53 33.32 153.845 33.64C154.159 33.9547 154.405 34.344 154.581 34.808C154.762 35.2667 154.852 35.792 154.852 36.384C154.852 36.6827 154.821 36.8853 154.757 36.992C154.693 37.0933 154.57 37.144 154.389 37.144H149.309ZM163.532 32.792L160.276 41H158.484L155.228 32.792H156.86C157.01 32.792 157.132 32.8267 157.228 32.896C157.33 32.9653 157.396 33.0533 157.428 33.16L159.012 37.544C159.098 37.8 159.172 38.0507 159.236 38.296C159.3 38.5413 159.356 38.7867 159.404 39.032C159.458 38.7867 159.516 38.5413 159.58 38.296C159.644 38.0507 159.722 37.8 159.812 37.544L161.428 33.16C161.466 33.0533 161.532 32.9653 161.628 32.896C161.724 32.8267 161.839 32.792 161.972 32.792H163.532ZM169.623 35.952C169.623 35.696 169.586 35.456 169.511 35.232C169.442 35.0027 169.335 34.8027 169.191 34.632C169.047 34.4613 168.863 34.328 168.639 34.232C168.421 34.1307 168.165 34.08 167.871 34.08C167.301 34.08 166.85 34.2427 166.519 34.568C166.194 34.8933 165.986 35.3547 165.895 35.952H169.623ZM165.855 37.144C165.887 37.5653 165.962 37.9307 166.079 38.24C166.197 38.544 166.351 38.7973 166.543 39C166.735 39.1973 166.962 39.3467 167.223 39.448C167.49 39.544 167.783 39.592 168.103 39.592C168.423 39.592 168.698 39.5547 168.927 39.48C169.162 39.4053 169.365 39.3227 169.535 39.232C169.711 39.1413 169.863 39.0587 169.991 38.984C170.125 38.9093 170.253 38.872 170.375 38.872C170.541 38.872 170.663 38.9333 170.743 39.056L171.311 39.776C171.093 40.032 170.847 40.248 170.575 40.424C170.303 40.5947 170.018 40.7333 169.719 40.84C169.426 40.9413 169.125 41.0133 168.815 41.056C168.511 41.0987 168.215 41.12 167.927 41.12C167.357 41.12 166.826 41.0267 166.335 40.84C165.845 40.648 165.418 40.368 165.055 40C164.693 39.6267 164.407 39.168 164.199 38.624C163.991 38.0747 163.887 37.44 163.887 36.72C163.887 36.16 163.978 35.6347 164.159 35.144C164.341 34.648 164.599 34.2187 164.935 33.856C165.277 33.488 165.69 33.1973 166.175 32.984C166.666 32.7707 167.218 32.664 167.831 32.664C168.349 32.664 168.826 32.7467 169.263 32.912C169.701 33.0773 170.077 33.32 170.391 33.64C170.706 33.9547 170.951 34.344 171.127 34.808C171.309 35.2667 171.399 35.792 171.399 36.384C171.399 36.6827 171.367 36.8853 171.303 36.992C171.239 37.0933 171.117 37.144 170.935 37.144H165.855ZM174.882 29.112V41H172.906V29.112H174.882ZM180.483 32.664C181.091 32.664 181.643 32.7627 182.139 32.96C182.64 33.1573 183.067 33.4373 183.419 33.8C183.776 34.1627 184.051 34.6053 184.243 35.128C184.435 35.6507 184.531 36.2347 184.531 36.88C184.531 37.5307 184.435 38.1173 184.243 38.64C184.051 39.1627 183.776 39.608 183.419 39.976C183.067 40.344 182.64 40.6267 182.139 40.824C181.643 41.0213 181.091 41.12 180.483 41.12C179.87 41.12 179.312 41.0213 178.811 40.824C178.31 40.6267 177.88 40.344 177.523 39.976C177.171 39.608 176.896 39.1627 176.699 38.64C176.507 38.1173 176.411 37.5307 176.411 36.88C176.411 36.2347 176.507 35.6507 176.699 35.128C176.896 34.6053 177.171 34.1627 177.523 33.8C177.88 33.4373 178.31 33.1573 178.811 32.96C179.312 32.7627 179.87 32.664 180.483 32.664ZM180.483 39.6C181.166 39.6 181.67 39.3707 181.995 38.912C182.326 38.4533 182.491 37.7813 182.491 36.896C182.491 36.0107 182.326 35.336 181.995 34.872C181.67 34.408 181.166 34.176 180.483 34.176C179.79 34.176 179.275 34.4107 178.939 34.88C178.608 35.344 178.443 36.016 178.443 36.896C178.443 37.776 178.608 38.448 178.939 38.912C179.275 39.3707 179.79 39.6 180.483 39.6ZM188.015 38.872C188.239 39.144 188.481 39.336 188.743 39.448C189.009 39.56 189.297 39.616 189.607 39.616C189.905 39.616 190.175 39.56 190.415 39.448C190.655 39.336 190.857 39.1653 191.023 38.936C191.193 38.7067 191.324 38.4187 191.415 38.072C191.505 37.72 191.551 37.3067 191.551 36.832C191.551 36.352 191.511 35.9467 191.431 35.616C191.356 35.28 191.247 35.008 191.103 34.8C190.959 34.592 190.783 34.44 190.575 34.344C190.372 34.248 190.14 34.2 189.879 34.2C189.468 34.2 189.119 34.288 188.831 34.464C188.543 34.6347 188.271 34.8773 188.015 35.192V38.872ZM187.911 33.912C188.247 33.5333 188.628 33.2267 189.055 32.992C189.481 32.7573 189.983 32.64 190.559 32.64C191.007 32.64 191.415 32.7333 191.783 32.92C192.156 33.1067 192.476 33.3787 192.743 33.736C193.015 34.088 193.223 34.5253 193.367 35.048C193.516 35.5653 193.591 36.16 193.591 36.832C193.591 37.4453 193.508 38.0133 193.343 38.536C193.177 39.0587 192.94 39.512 192.631 39.896C192.327 40.28 191.956 40.5813 191.519 40.8C191.087 41.0133 190.601 41.12 190.062 41.12C189.604 41.12 189.212 41.0507 188.887 40.912C188.561 40.768 188.271 40.5707 188.015 40.32V43.68H186.039V32.792H187.247C187.503 32.792 187.671 32.912 187.751 33.152L187.911 33.912ZM200.42 35.952C200.42 35.696 200.383 35.456 200.308 35.232C200.239 35.0027 200.132 34.8027 199.988 34.632C199.844 34.4613 199.66 34.328 199.436 34.232C199.218 34.1307 198.962 34.08 198.668 34.08C198.098 34.08 197.647 34.2427 197.316 34.568C196.991 34.8933 196.783 35.3547 196.692 35.952H200.42ZM196.652 37.144C196.684 37.5653 196.759 37.9307 196.876 38.24C196.994 38.544 197.148 38.7973 197.34 39C197.532 39.1973 197.759 39.3467 198.02 39.448C198.287 39.544 198.58 39.592 198.9 39.592C199.22 39.592 199.495 39.5547 199.724 39.48C199.959 39.4053 200.162 39.3227 200.332 39.232C200.508 39.1413 200.66 39.0587 200.788 38.984C200.922 38.9093 201.05 38.872 201.172 38.872C201.338 38.872 201.46 38.9333 201.54 39.056L202.108 39.776C201.89 40.032 201.644 40.248 201.372 40.424C201.1 40.5947 200.815 40.7333 200.516 40.84C200.223 40.9413 199.922 41.0133 199.612 41.056C199.308 41.0987 199.012 41.12 198.724 41.12C198.154 41.12 197.623 41.0267 197.132 40.84C196.642 40.648 196.215 40.368 195.852 40C195.49 39.6267 195.204 39.168 194.996 38.624C194.788 38.0747 194.684 37.44 194.684 36.72C194.684 36.16 194.775 35.6347 194.956 35.144C195.138 34.648 195.396 34.2187 195.732 33.856C196.074 33.488 196.487 33.1973 196.972 32.984C197.463 32.7707 198.015 32.664 198.628 32.664C199.146 32.664 199.623 32.7467 200.06 32.912C200.498 33.0773 200.874 33.32 201.188 33.64C201.503 33.9547 201.748 34.344 201.924 34.808C202.106 35.2667 202.196 35.792 202.196 36.384C202.196 36.6827 202.164 36.8853 202.1 36.992C202.036 37.0933 201.914 37.144 201.732 37.144H196.652ZM205.543 34.216C205.799 33.7253 206.103 33.3413 206.455 33.064C206.807 32.7813 207.223 32.64 207.703 32.64C208.082 32.64 208.386 32.7227 208.615 32.888L208.487 34.368C208.46 34.464 208.42 34.5333 208.367 34.576C208.319 34.6133 208.252 34.632 208.167 34.632C208.087 34.632 207.967 34.6187 207.807 34.592C207.652 34.5653 207.5 34.552 207.351 34.552C207.132 34.552 206.938 34.584 206.767 34.648C206.596 34.712 206.442 34.8053 206.303 34.928C206.17 35.0453 206.05 35.1893 205.943 35.36C205.842 35.5307 205.746 35.7253 205.655 35.944V41H203.679V32.792H204.839C205.042 32.792 205.183 32.8293 205.263 32.904C205.343 32.9733 205.396 33.1013 205.423 33.288L205.543 34.216Z" fill="#363434"/>
<path d="M59.5 22C59.5 21.1716 60.1716 20.5 61 20.5H211C211.828 20.5 212.5 21.1716 212.5 22V48C212.5 48.8284 211.828 49.5 211 49.5H61C60.1716 49.5 59.5 48.8284 59.5 48V22Z" stroke="#9C9A9A"/>
<path d="M89.048 73.248C89.4427 73.248 89.7867 73.2 90.08 73.104C90.3733 73.0027 90.616 72.8613 90.808 72.68C91.0053 72.4933 91.152 72.2693 91.248 72.008C91.344 71.7413 91.392 71.4453 91.392 71.12C91.392 70.8107 91.344 70.5307 91.248 70.28C91.152 70.0293 91.008 69.816 90.816 69.64C90.624 69.464 90.3813 69.3307 90.088 69.24C89.7947 69.144 89.448 69.096 89.048 69.096H87.44V73.248H89.048ZM89.048 67.432C89.8213 67.432 90.4907 67.5227 91.056 67.704C91.6213 67.8853 92.088 68.1387 92.456 68.464C92.824 68.7893 93.096 69.1787 93.272 69.632C93.4533 70.0853 93.544 70.5813 93.544 71.12C93.544 71.68 93.4507 72.1947 93.264 72.664C93.0773 73.128 92.7973 73.528 92.424 73.864C92.0507 74.2 91.5813 74.4613 91.016 74.648C90.456 74.8347 89.8 74.928 89.048 74.928H87.44V79H85.288V67.432H89.048ZM96.6213 72.216C96.8773 71.7253 97.1813 71.3413 97.5333 71.064C97.8853 70.7813 98.3013 70.64 98.7812 70.64C99.1599 70.64 99.4639 70.7227 99.6933 70.888L99.5653 72.368C99.5386 72.464 99.4986 72.5333 99.4453 72.576C99.3973 72.6133 99.3306 72.632 99.2453 72.632C99.1653 72.632 99.0453 72.6187 98.8853 72.592C98.7306 72.5653 98.5786 72.552 98.4293 72.552C98.2106 72.552 98.0159 72.584 97.8453 72.648C97.6746 72.712 97.5199 72.8053 97.3813 72.928C97.2479 73.0453 97.1279 73.1893 97.0213 73.36C96.9199 73.5307 96.8239 73.7253 96.7333 73.944V79H94.7573V70.792H95.9173C96.1199 70.792 96.2613 70.8293 96.3413 70.904C96.4213 70.9733 96.4746 71.1013 96.5013 71.288L96.6213 72.216ZM104.124 70.664C104.732 70.664 105.284 70.7627 105.78 70.96C106.281 71.1573 106.708 71.4373 107.06 71.8C107.417 72.1627 107.692 72.6053 107.884 73.128C108.076 73.6507 108.172 74.2347 108.172 74.88C108.172 75.5307 108.076 76.1173 107.884 76.64C107.692 77.1627 107.417 77.608 107.06 77.976C106.708 78.344 106.281 78.6267 105.78 78.824C105.284 79.0213 104.732 79.12 104.124 79.12C103.51 79.12 102.953 79.0213 102.452 78.824C101.95 78.6267 101.521 78.344 101.164 77.976C100.812 77.608 100.537 77.1627 100.34 76.64C100.148 76.1173 100.052 75.5307 100.052 74.88C100.052 74.2347 100.148 73.6507 100.34 73.128C100.537 72.6053 100.812 72.1627 101.164 71.8C101.521 71.4373 101.95 71.1573 102.452 70.96C102.953 70.7627 103.51 70.664 104.124 70.664ZM104.124 77.6C104.806 77.6 105.31 77.3707 105.636 76.912C105.966 76.4533 106.132 75.7813 106.132 74.896C106.132 74.0107 105.966 73.336 105.636 72.872C105.31 72.408 104.806 72.176 104.124 72.176C103.43 72.176 102.916 72.4107 102.58 72.88C102.249 73.344 102.084 74.016 102.084 74.896C102.084 75.776 102.249 76.448 102.58 76.912C102.916 77.3707 103.43 77.6 104.124 77.6ZM114.831 72.888C114.607 72.616 114.362 72.424 114.095 72.312C113.834 72.2 113.551 72.144 113.247 72.144C112.948 72.144 112.679 72.2 112.439 72.312C112.199 72.424 111.994 72.5947 111.823 72.824C111.652 73.048 111.522 73.336 111.431 73.688C111.34 74.0347 111.295 74.4453 111.295 74.92C111.295 75.4 111.332 75.808 111.407 76.144C111.487 76.4747 111.599 76.7467 111.743 76.96C111.887 77.168 112.063 77.32 112.271 77.416C112.479 77.5067 112.711 77.552 112.967 77.552C113.378 77.552 113.727 77.4667 114.015 77.296C114.303 77.1253 114.575 76.8827 114.831 76.568V72.888ZM116.807 67.112V79H115.599C115.338 79 115.172 78.88 115.103 78.64L114.935 77.848C114.604 78.2267 114.223 78.5333 113.791 78.768C113.364 79.0027 112.866 79.12 112.295 79.12C111.847 79.12 111.436 79.0267 111.063 78.84C110.69 78.6533 110.367 78.384 110.095 78.032C109.828 77.6747 109.62 77.2347 109.471 76.712C109.327 76.1893 109.255 75.592 109.255 74.92C109.255 74.312 109.338 73.7467 109.503 73.224C109.668 72.7013 109.906 72.248 110.215 71.864C110.524 71.48 110.895 71.1813 111.327 70.968C111.759 70.7493 112.244 70.64 112.783 70.64C113.242 70.64 113.634 70.712 113.959 70.856C114.284 71 114.575 71.1947 114.831 71.44V67.112H116.807ZM125.829 70.792V79H124.621C124.36 79 124.195 78.88 124.125 78.64L123.989 77.984C123.653 78.3253 123.283 78.6027 122.877 78.816C122.472 79.024 121.995 79.128 121.445 79.128C120.997 79.128 120.6 79.0533 120.253 78.904C119.912 78.7493 119.624 78.5333 119.389 78.256C119.155 77.9787 118.976 77.6507 118.853 77.272C118.736 76.888 118.677 76.4667 118.677 76.008V70.792H120.653V76.008C120.653 76.5093 120.768 76.8987 120.997 77.176C121.232 77.448 121.581 77.584 122.045 77.584C122.387 77.584 122.707 77.5093 123.005 77.36C123.304 77.2053 123.587 76.9947 123.853 76.728V70.792H125.829ZM133.669 72.528C133.61 72.6027 133.551 72.6613 133.493 72.704C133.439 72.7467 133.359 72.768 133.253 72.768C133.151 72.768 133.053 72.7387 132.957 72.68C132.861 72.616 132.746 72.5467 132.613 72.472C132.479 72.392 132.319 72.3227 132.133 72.264C131.951 72.2 131.725 72.168 131.453 72.168C131.106 72.168 130.802 72.232 130.541 72.36C130.279 72.4827 130.061 72.6613 129.885 72.896C129.714 73.1307 129.586 73.416 129.501 73.752C129.415 74.0827 129.373 74.4587 129.373 74.88C129.373 75.3173 129.418 75.7067 129.509 76.048C129.605 76.3893 129.741 76.6773 129.917 76.912C130.093 77.1413 130.306 77.3173 130.557 77.44C130.807 77.5573 131.09 77.616 131.405 77.616C131.719 77.616 131.973 77.5787 132.165 77.504C132.362 77.424 132.527 77.3387 132.661 77.248C132.794 77.152 132.909 77.0667 133.005 76.992C133.106 76.912 133.218 76.872 133.341 76.872C133.501 76.872 133.621 76.9333 133.701 77.056L134.269 77.776C134.05 78.032 133.813 78.248 133.557 78.424C133.301 78.5947 133.034 78.7333 132.757 78.84C132.485 78.9413 132.202 79.0133 131.909 79.056C131.621 79.0987 131.333 79.12 131.045 79.12C130.538 79.12 130.061 79.0267 129.613 78.84C129.165 78.648 128.773 78.3707 128.437 78.008C128.101 77.6453 127.834 77.2027 127.637 76.68C127.445 76.152 127.349 75.552 127.349 74.88C127.349 74.2773 127.434 73.72 127.605 73.208C127.781 72.6907 128.037 72.2453 128.373 71.872C128.709 71.4933 129.125 71.1973 129.621 70.984C130.117 70.7707 130.687 70.664 131.332 70.664C131.946 70.664 132.482 70.7627 132.941 70.96C133.405 71.1573 133.821 71.44 134.189 71.808L133.669 72.528ZM138.243 79.128C137.529 79.128 136.979 78.928 136.595 78.528C136.217 78.1227 136.027 77.5653 136.027 76.856V72.272H135.187C135.081 72.272 134.99 72.2373 134.915 72.168C134.841 72.0987 134.803 71.9947 134.803 71.856V71.072L136.123 70.856L136.539 68.616C136.566 68.5093 136.617 68.4267 136.691 68.368C136.766 68.3093 136.862 68.28 136.979 68.28H138.003V70.864H140.195V72.272H138.003V76.72C138.003 76.976 138.065 77.176 138.187 77.32C138.315 77.464 138.489 77.536 138.707 77.536C138.83 77.536 138.931 77.5227 139.011 77.496C139.097 77.464 139.169 77.432 139.227 77.4C139.291 77.368 139.347 77.3387 139.395 77.312C139.443 77.28 139.491 77.264 139.539 77.264C139.598 77.264 139.646 77.28 139.683 77.312C139.721 77.3387 139.761 77.3813 139.803 77.44L140.395 78.4C140.107 78.64 139.777 78.8213 139.403 78.944C139.03 79.0667 138.643 79.128 138.243 79.128ZM150.503 72.888C150.279 72.616 150.034 72.424 149.767 72.312C149.506 72.2 149.223 72.144 148.919 72.144C148.62 72.144 148.351 72.2 148.111 72.312C147.871 72.424 147.666 72.5947 147.495 72.824C147.324 73.048 147.194 73.336 147.103 73.688C147.012 74.0347 146.967 74.4453 146.967 74.92C146.967 75.4 147.004 75.808 147.079 76.144C147.159 76.4747 147.271 76.7467 147.415 76.96C147.559 77.168 147.735 77.32 147.943 77.416C148.151 77.5067 148.383 77.552 148.639 77.552C149.05 77.552 149.399 77.4667 149.687 77.296C149.975 77.1253 150.247 76.8827 150.503 76.568V72.888ZM152.479 67.112V79H151.271C151.01 79 150.844 78.88 150.775 78.64L150.607 77.848C150.276 78.2267 149.895 78.5333 149.463 78.768C149.036 79.0027 148.538 79.12 147.967 79.12C147.519 79.12 147.108 79.0267 146.735 78.84C146.362 78.6533 146.039 78.384 145.767 78.032C145.5 77.6747 145.292 77.2347 145.143 76.712C144.999 76.1893 144.927 75.592 144.927 74.92C144.927 74.312 145.01 73.7467 145.175 73.224C145.34 72.7013 145.578 72.248 145.887 71.864C146.196 71.48 146.567 71.1813 146.999 70.968C147.431 70.7493 147.916 70.64 148.455 70.64C148.914 70.64 149.306 70.712 149.631 70.856C149.956 71 150.247 71.1947 150.503 71.44V67.112H152.479ZM159.717 73.952C159.717 73.696 159.68 73.456 159.605 73.232C159.536 73.0027 159.429 72.8027 159.285 72.632C159.141 72.4613 158.957 72.328 158.733 72.232C158.514 72.1307 158.258 72.08 157.965 72.08C157.394 72.08 156.944 72.2427 156.613 72.568C156.288 72.8933 156.08 73.3547 155.989 73.952H159.717ZM155.949 75.144C155.981 75.5653 156.056 75.9307 156.173 76.24C156.29 76.544 156.445 76.7973 156.637 77C156.829 77.1973 157.056 77.3467 157.317 77.448C157.584 77.544 157.877 77.592 158.197 77.592C158.517 77.592 158.792 77.5547 159.021 77.48C159.256 77.4053 159.458 77.3227 159.629 77.232C159.805 77.1413 159.957 77.0587 160.085 76.984C160.218 76.9093 160.346 76.872 160.469 76.872C160.634 76.872 160.757 76.9333 160.837 77.056L161.405 77.776C161.186 78.032 160.941 78.248 160.669 78.424C160.397 78.5947 160.112 78.7333 159.813 78.84C159.52 78.9413 159.218 79.0133 158.909 79.056C158.605 79.0987 158.309 79.12 158.021 79.12C157.45 79.12 156.92 79.0267 156.429 78.84C155.938 78.648 155.512 78.368 155.149 78C154.786 77.6267 154.501 77.168 154.293 76.624C154.085 76.0747 153.981 75.44 153.981 74.72C153.981 74.16 154.072 73.6347 154.253 73.144C154.434 72.648 154.693 72.2187 155.029 71.856C155.37 71.488 155.784 71.1973 156.269 70.984C156.76 70.7707 157.312 70.664 157.925 70.664C158.442 70.664 158.92 70.7467 159.357 70.912C159.794 71.0773 160.17 71.32 160.485 71.64C160.8 71.9547 161.045 72.344 161.221 72.808C161.402 73.2667 161.493 73.792 161.493 74.384C161.493 74.6827 161.461 74.8853 161.397 74.992C161.333 75.0933 161.21 75.144 161.029 75.144H155.949ZM167.984 72.392C167.931 72.4773 167.875 72.5387 167.816 72.576C167.757 72.608 167.683 72.624 167.592 72.624C167.496 72.624 167.392 72.5973 167.28 72.544C167.173 72.4907 167.048 72.432 166.904 72.368C166.76 72.2987 166.595 72.2373 166.408 72.184C166.227 72.1307 166.011 72.104 165.76 72.104C165.371 72.104 165.064 72.1867 164.84 72.352C164.621 72.5173 164.512 72.7333 164.512 73C164.512 73.176 164.568 73.3253 164.68 73.448C164.797 73.5653 164.949 73.6693 165.136 73.76C165.328 73.8507 165.544 73.9333 165.784 74.008C166.024 74.0773 166.267 74.1547 166.512 74.24C166.763 74.3253 167.008 74.424 167.248 74.536C167.488 74.6427 167.701 74.7813 167.888 74.952C168.08 75.1173 168.232 75.3173 168.344 75.552C168.461 75.7867 168.52 76.0693 168.52 76.4C168.52 76.7947 168.448 77.16 168.304 77.496C168.165 77.8267 167.957 78.1147 167.68 78.36C167.403 78.6 167.059 78.7893 166.648 78.928C166.243 79.0613 165.773 79.128 165.24 79.128C164.957 79.128 164.68 79.1013 164.408 79.048C164.141 79 163.883 78.9307 163.632 78.84C163.387 78.7493 163.157 78.6427 162.944 78.52C162.736 78.3973 162.552 78.264 162.392 78.12L162.848 77.368C162.907 77.2773 162.976 77.208 163.056 77.16C163.136 77.112 163.237 77.088 163.36 77.088C163.483 77.088 163.597 77.1227 163.704 77.192C163.816 77.2613 163.944 77.336 164.088 77.416C164.232 77.496 164.4 77.5707 164.592 77.64C164.789 77.7093 165.037 77.744 165.336 77.744C165.571 77.744 165.771 77.7173 165.936 77.664C166.107 77.6053 166.245 77.5307 166.352 77.44C166.464 77.3493 166.544 77.2453 166.592 77.128C166.645 77.0053 166.672 76.88 166.672 76.752C166.672 76.56 166.613 76.4027 166.496 76.28C166.384 76.1573 166.232 76.0507 166.04 75.96C165.853 75.8693 165.637 75.7893 165.392 75.72C165.152 75.6453 164.904 75.5653 164.648 75.48C164.397 75.3947 164.149 75.296 163.904 75.184C163.664 75.0667 163.448 74.92 163.256 74.744C163.069 74.568 162.917 74.352 162.8 74.096C162.688 73.84 162.632 73.5307 162.632 73.168C162.632 72.832 162.699 72.512 162.832 72.208C162.965 71.904 163.16 71.64 163.416 71.416C163.677 71.1867 164 71.0053 164.384 70.872C164.773 70.7333 165.221 70.664 165.728 70.664C166.293 70.664 166.808 70.7573 167.272 70.944C167.736 71.1307 168.123 71.376 168.432 71.68L167.984 72.392ZM172.055 70.792V79H170.071V70.792H172.055ZM172.327 68.4C172.327 68.5707 172.293 68.7307 172.223 68.88C172.154 69.0293 172.061 69.16 171.943 69.272C171.831 69.384 171.698 69.4747 171.543 69.544C171.389 69.608 171.223 69.64 171.047 69.64C170.877 69.64 170.714 69.608 170.559 69.544C170.41 69.4747 170.279 69.384 170.167 69.272C170.055 69.16 169.965 69.0293 169.895 68.88C169.831 68.7307 169.799 68.5707 169.799 68.4C169.799 68.224 169.831 68.0587 169.895 67.904C169.965 67.7493 170.055 67.616 170.167 67.504C170.279 67.392 170.41 67.304 170.559 67.24C170.714 67.1707 170.877 67.136 171.047 67.136C171.223 67.136 171.389 67.1707 171.543 67.24C171.698 67.304 171.831 67.392 171.943 67.504C172.061 67.616 172.154 67.7493 172.223 67.904C172.293 68.0587 172.327 68.224 172.327 68.4ZM177.07 74.696C177.315 74.696 177.528 74.664 177.71 74.6C177.891 74.5307 178.04 74.4373 178.158 74.32C178.28 74.2027 178.371 74.0613 178.43 73.896C178.494 73.7307 178.526 73.5493 178.526 73.352C178.526 72.9467 178.403 72.6267 178.158 72.392C177.918 72.152 177.555 72.032 177.07 72.032C176.584 72.032 176.219 72.152 175.974 72.392C175.734 72.6267 175.614 72.9467 175.614 73.352C175.614 73.544 175.643 73.7227 175.702 73.888C175.766 74.0533 175.856 74.1973 175.974 74.32C176.096 74.4373 176.248 74.5307 176.43 74.6C176.616 74.664 176.83 74.696 177.07 74.696ZM179.302 79.368C179.302 79.208 179.254 79.0773 179.158 78.976C179.062 78.8747 178.931 78.7973 178.766 78.744C178.6 78.6853 178.406 78.6427 178.182 78.616C177.963 78.5893 177.728 78.5707 177.478 78.56C177.232 78.544 176.976 78.5307 176.71 78.52C176.448 78.5093 176.192 78.488 175.942 78.456C175.723 78.5787 175.544 78.7227 175.406 78.888C175.272 79.0533 175.206 79.2453 175.206 79.464C175.206 79.608 175.24 79.7413 175.31 79.864C175.384 79.992 175.499 80.1013 175.654 80.192C175.814 80.2827 176.019 80.352 176.27 80.4C176.52 80.4533 176.827 80.48 177.19 80.48C177.558 80.48 177.875 80.4507 178.142 80.392C178.408 80.3387 178.627 80.2613 178.798 80.16C178.974 80.064 179.102 79.9467 179.182 79.808C179.262 79.6747 179.302 79.528 179.302 79.368ZM181.27 71.072V71.808C181.27 72.0427 181.128 72.1867 180.846 72.24L180.11 72.376C180.222 72.6587 180.278 72.968 180.278 73.304C180.278 73.7093 180.195 74.0773 180.03 74.408C179.87 74.7333 179.646 75.0107 179.358 75.24C179.07 75.4693 178.728 75.648 178.334 75.776C177.944 75.8987 177.523 75.96 177.07 75.96C176.91 75.96 176.755 75.952 176.606 75.936C176.456 75.92 176.31 75.8987 176.166 75.872C175.91 76.0267 175.782 76.2 175.782 76.392C175.782 76.5573 175.856 76.68 176.006 76.76C176.16 76.8347 176.363 76.888 176.614 76.92C176.864 76.952 177.15 76.9733 177.47 76.984C177.79 76.9893 178.118 77.0053 178.454 77.032C178.79 77.0587 179.118 77.1067 179.438 77.176C179.758 77.24 180.043 77.344 180.294 77.488C180.544 77.632 180.744 77.8293 180.894 78.08C181.048 78.3253 181.126 78.6427 181.126 79.032C181.126 79.3947 181.035 79.7467 180.854 80.088C180.678 80.4293 180.419 80.7333 180.078 81C179.742 81.2667 179.326 81.48 178.83 81.64C178.339 81.8053 177.779 81.888 177.15 81.888C176.531 81.888 175.992 81.8267 175.534 81.704C175.075 81.5867 174.694 81.4267 174.39 81.224C174.086 81.0267 173.859 80.7973 173.71 80.536C173.56 80.2747 173.486 80.0027 173.486 79.72C173.486 79.336 173.6 79.016 173.83 78.76C174.064 78.4987 174.384 78.2907 174.79 78.136C174.571 78.024 174.398 77.8747 174.27 77.688C174.142 77.5013 174.078 77.256 174.078 76.952C174.078 76.8293 174.099 76.704 174.142 76.576C174.19 76.4427 174.256 76.312 174.342 76.184C174.432 76.056 174.544 75.936 174.678 75.824C174.811 75.7067 174.968 75.6027 175.15 75.512C174.734 75.288 174.406 74.9893 174.166 74.616C173.931 74.2427 173.814 73.8053 173.814 73.304C173.814 72.8987 173.894 72.5333 174.054 72.208C174.219 71.8773 174.446 71.5973 174.734 71.368C175.027 71.1333 175.371 70.9547 175.766 70.832C176.166 70.7093 176.6 70.648 177.07 70.648C177.422 70.648 177.752 70.6853 178.062 70.76C178.371 70.8293 178.654 70.9333 178.91 71.072H181.27ZM184.371 71.8C184.536 71.6347 184.71 71.4827 184.891 71.344C185.078 71.2 185.272 71.08 185.475 70.984C185.683 70.8827 185.904 70.8053 186.139 70.752C186.374 70.6933 186.63 70.664 186.907 70.664C187.355 70.664 187.752 70.7413 188.099 70.896C188.446 71.0453 188.734 71.2587 188.963 71.536C189.198 71.808 189.374 72.136 189.491 72.52C189.614 72.8987 189.675 73.3173 189.675 73.776V79H187.699V73.776C187.699 73.2747 187.584 72.888 187.355 72.616C187.126 72.3387 186.776 72.2 186.307 72.2C185.966 72.2 185.646 72.2773 185.347 72.432C185.048 72.5867 184.766 72.7973 184.499 73.064V79H182.523V70.792H183.731C183.987 70.792 184.155 70.912 184.235 71.152L184.371 71.8ZM196.842 73.952C196.842 73.696 196.805 73.456 196.73 73.232C196.661 73.0027 196.554 72.8027 196.41 72.632C196.266 72.4613 196.082 72.328 195.858 72.232C195.639 72.1307 195.383 72.08 195.09 72.08C194.519 72.08 194.069 72.2427 193.738 72.568C193.413 72.8933 193.205 73.3547 193.114 73.952H196.842ZM193.074 75.144C193.106 75.5653 193.181 75.9307 193.298 76.24C193.415 76.544 193.57 76.7973 193.762 77C193.954 77.1973 194.181 77.3467 194.442 77.448C194.709 77.544 195.002 77.592 195.322 77.592C195.642 77.592 195.917 77.5547 196.146 77.48C196.381 77.4053 196.583 77.3227 196.754 77.232C196.93 77.1413 197.082 77.0587 197.21 76.984C197.343 76.9093 197.471 76.872 197.594 76.872C197.759 76.872 197.882 76.9333 197.962 77.056L198.53 77.776C198.311 78.032 198.066 78.248 197.794 78.424C197.522 78.5947 197.237 78.7333 196.938 78.84C196.645 78.9413 196.343 79.0133 196.034 79.056C195.73 79.0987 195.434 79.12 195.146 79.12C194.575 79.12 194.045 79.0267 193.554 78.84C193.063 78.648 192.637 78.368 192.274 78C191.911 77.6267 191.626 77.168 191.418 76.624C191.21 76.0747 191.106 75.44 191.106 74.72C191.106 74.16 191.197 73.6347 191.378 73.144C191.559 72.648 191.818 72.2187 192.154 71.856C192.495 71.488 192.909 71.1973 193.394 70.984C193.885 70.7707 194.437 70.664 195.05 70.664C195.567 70.664 196.045 70.7467 196.482 70.912C196.919 71.0773 197.295 71.32 197.61 71.64C197.925 71.9547 198.17 72.344 198.346 72.808C198.527 73.2667 198.618 73.792 198.618 74.384C198.618 74.6827 198.586 74.8853 198.522 74.992C198.458 75.0933 198.335 75.144 198.154 75.144H193.074ZM201.965 72.216C202.221 71.7253 202.525 71.3413 202.877 71.064C203.229 70.7813 203.645 70.64 204.125 70.64C204.504 70.64 204.808 70.7227 205.037 70.888L204.909 72.368C204.882 72.464 204.842 72.5333 204.789 72.576C204.741 72.6133 204.674 72.632 204.589 72.632C204.509 72.632 204.389 72.6187 204.229 72.592C204.074 72.5653 203.922 72.552 203.773 72.552C203.554 72.552 203.36 72.584 203.189 72.648C203.018 72.712 202.864 72.8053 202.725 72.928C202.592 73.0453 202.472 73.1893 202.365 73.36C202.264 73.5307 202.168 73.7253 202.077 73.944V79H200.101V70.792H201.261C201.464 70.792 201.605 70.8293 201.685 70.904C201.765 70.9733 201.818 71.1013 201.845 71.288L201.965 72.216Z" fill="#363434"/>
<path d="M80.5 60C80.5 59.1716 81.1716 58.5 82 58.5H208C208.828 58.5 209.5 59.1716 209.5 60V86C209.5 86.8284 208.828 87.5 208 87.5H82C81.1716 87.5 80.5 86.8284 80.5 86V60Z" stroke="#9C9A9A"/>
<path fill-rule="evenodd" clip-rule="evenodd" d="M0.707107 0L0 0.707108L33 33.7071V52.5L33.1774 52.8845L53.2925 72.9995L53.2923 73L53.293 73L65 73V72H53.7072L34 52.2928V34H44V33H34H33.7071L0.707107 0ZM48 33.5C48 32.6716 48.6716 32 49.5 32C50.3284 32 51 32.6716 51 33.5C51 34.3284 50.3284 35 49.5 35C48.6716 35 48 34.3284 48 33.5ZM69 72.5C69 71.6716 69.6716 71 70.5 71C71.3284 71 72 71.6716 72 72.5C72 73.3284 71.3284 74 70.5 74C69.6716 74 69 73.3284 69 72.5Z" fill="#9C9A9A"/>
</svg>
