<svg width="16" height="16" viewBox="0 0 16 16" fill="none" xmlns="http://www.w3.org/2000/svg">
<path d="M5.65752 3.10071L10.8869 7.7573C10.9228 7.78914 10.9512 7.82697 10.9706 7.86862C10.99 7.91026 11 7.95491 11 8C11 8.04509 10.99 8.08974 10.9706 8.13138C10.9512 8.17303 10.9228 8.21086 10.8869 8.2427L5.65752 12.8993C5.60368 12.9474 5.53503 12.9801 5.46026 12.9934C5.38549 13.0067 5.30798 12.9999 5.23755 12.9739C5.16712 12.9479 5.10695 12.9038 5.06466 12.8474C5.02237 12.7909 4.99986 12.7245 5 12.6566V3.34341C4.99986 3.27552 5.02237 3.20913 5.06466 3.15264C5.10695 3.09616 5.16712 3.05212 5.23755 3.02613C5.30798 3.00013 5.38549 2.99334 5.46026 3.00662C5.53503 3.0199 5.60368 3.05265 5.65752 3.10071Z" fill="#E63946"/>
</svg>
