<svg width="16" height="17" viewBox="0 0 16 17" fill="none" xmlns="http://www.w3.org/2000/svg">
<path d="M12.8993 6.15752L8.2427 11.3869C8.21086 11.4228 8.17303 11.4512 8.13138 11.4706C8.08974 11.49 8.04509 11.5 8 11.5C7.95491 11.5 7.91026 11.49 7.86862 11.4706C7.82697 11.4512 7.78914 11.4228 7.7573 11.3869L3.10071 6.15752C3.05265 6.10368 3.0199 6.03503 3.00662 5.96026C2.99334 5.88549 3.00013 5.80798 3.02613 5.73755C3.05212 5.66712 3.09616 5.60695 3.15264 5.56466C3.20913 5.52237 3.27552 5.49986 3.34341 5.5H12.6566C12.7245 5.49986 12.7909 5.52237 12.8474 5.56466C12.9038 5.60695 12.9479 5.66712 12.9739 5.73755C12.9999 5.80798 13.0067 5.88549 12.9934 5.96026C12.9801 6.03503 12.9474 6.10368 12.8993 6.15752Z" fill="#E63946"/>
</svg>
