<svg width="16" height="16" viewBox="0 0 16 16" fill="none" xmlns="http://www.w3.org/2000/svg">
<path d="M2.29185 2.31779C2.47896 2.13131 2.7326 2.02656 2.99705 2.02656C3.2615 2.02656 3.51514 2.13131 3.70225 2.31779L7.98669 6.59317L12.2711 2.31779C12.3931 2.18671 12.5483 2.09088 12.7202 2.04041C12.8922 1.98994 13.0746 1.98668 13.2483 2.031C13.422 2.07531 13.5805 2.16554 13.707 2.29219C13.8336 2.41884 13.9237 2.57722 13.9676 2.75064C14.0121 2.92375 14.009 3.10561 13.9586 3.27711C13.9083 3.44861 13.8126 3.6034 13.6815 3.72521L9.3971 8.00059L13.6815 12.276C13.8129 12.3977 13.9089 12.5525 13.9595 12.7241C14.0101 12.8957 14.0133 13.0778 13.9689 13.2511C13.9245 13.4244 13.8341 13.5825 13.7072 13.7089C13.5803 13.8352 13.4216 13.925 13.2478 13.9689C13.0743 14.0132 12.892 14.0101 12.7202 13.9599C12.5483 13.9097 12.3932 13.8141 12.2711 13.6834L7.98669 9.40802L3.70225 13.6834C3.51296 13.8592 3.26275 13.9549 3.00419 13.9505C2.74564 13.946 2.49889 13.8417 2.3158 13.6595C2.13319 13.4768 2.02866 13.2306 2.0242 12.9726C2.01973 12.7145 2.11567 12.4649 2.29185 12.276L6.57629 8.00059L2.29185 3.72521C2.10497 3.5385 2 3.2854 2 3.0215C2 2.75761 2.10497 2.50451 2.29185 2.31779Z" fill="#E63946"/>
</svg>
