<svg width="8" height="80" viewBox="0 0 8 80" fill="none" xmlns="http://www.w3.org/2000/svg">
<path d="M0 4C0 1.79086 1.79086 0 4 0C6.20914 0 8 1.79086 8 4C8 6.20914 6.20914 8 4 8C1.79086 8 0 6.20914 0 4Z" fill="#189542"/>
<path d="M0 28C0 25.7909 1.79086 24 4 24C6.20914 24 8 25.7909 8 28C8 30.2091 6.20914 32 4 32C1.79086 32 0 30.2091 0 28Z" fill="#457B9D"/>
<path d="M0 52C0 49.7909 1.79086 48 4 48C6.20914 48 8 49.7909 8 52C8 54.2091 6.20914 56 4 56C1.79086 56 0 54.2091 0 52Z" fill="#E56D4A"/>
<path d="M0 76C0 73.7909 1.79086 72 4 72C6.20914 72 8 73.7909 8 76C8 78.2091 6.20914 80 4 80C1.79086 80 0 78.2091 0 76Z" fill="#E63946"/>
</svg>
