<svg width="16" height="16" viewBox="0 0 16 16" fill="none" xmlns="http://www.w3.org/2000/svg">
<path d="M1 3C1 2.73478 1.07902 2.48043 1.21967 2.29289C1.36032 2.10536 1.55109 2 1.75 2H14.25C14.4489 2 14.6397 2.10536 14.7803 2.29289C14.921 2.48043 15 2.73478 15 3C15 3.26522 14.921 3.51957 14.7803 3.70711C14.6397 3.89464 14.4489 4 14.25 4H8H1.75C1.55109 4 1.36032 3.89464 1.21967 3.70711C1.07902 3.51957 1 3.26522 1 3Z" fill="#E63946"/>
<path d="M1 13C1 12.7348 1.07902 12.4804 1.21967 12.2929C1.36032 12.1054 1.55109 12 1.75 12H14.25C14.4489 12 14.6397 12.1054 14.7803 12.2929C14.921 12.4804 15 12.7348 15 13C15 13.2652 14.921 13.5196 14.7803 13.7071C14.6397 13.8946 14.4489 14 14.25 14H8H1.75C1.55109 14 1.36032 13.8946 1.21967 13.7071C1.07902 13.5196 1 13.2652 1 13Z" fill="#E63946"/>
<path d="M1 8C1 7.73478 1.07902 7.48043 1.21967 7.29289C1.36032 7.10536 1.55109 7 1.75 7H14.25C14.4489 7 14.6397 7.10536 14.7803 7.29289C14.921 7.48043 15 7.73478 15 8C15 8.26522 14.921 8.51957 14.7803 8.70711C14.6397 8.89464 14.4489 9 14.25 9H8H1.75C1.55109 9 1.36032 8.89464 1.21967 8.70711C1.07902 8.51957 1 8.26522 1 8Z" fill="#E63946"/>
</svg>
