<svg width="32" height="32" viewBox="0 0 32 32" fill="none" xmlns="http://www.w3.org/2000/svg">
<path d="M14.2438 0.783907C14.7773 0.474485 15.3831 0.311523 15.9998 0.311523C16.6166 0.311523 17.2224 0.474485 17.7558 0.783907L27.7618 6.58791C29.4218 7.54991 29.4218 9.94791 27.7618 10.9119L17.7558 16.7159C17.2224 17.0253 16.6166 17.1883 15.9998 17.1883C15.3831 17.1883 14.7773 17.0253 14.2438 16.7159L4.23785 10.9119C3.85974 10.6917 3.546 10.3761 3.32794 9.99677C3.10987 9.6174 2.99512 9.18748 2.99512 8.74991C2.99512 8.31233 3.10987 7.88241 3.32794 7.50305C3.546 7.12368 3.85974 6.80814 4.23785 6.58791L14.2438 0.783907ZM16.2498 3.37991C16.174 3.33563 16.0877 3.31229 15.9998 3.31229C15.912 3.31229 15.8257 3.33563 15.7498 3.37991L6.48985 8.74991L15.7498 14.1199C15.8257 14.1642 15.912 14.1875 15.9998 14.1875C16.0877 14.1875 16.174 14.1642 16.2498 14.1199L25.5098 8.74991L16.2498 3.37991ZM3.20185 15.5779C3.30059 15.4074 3.43195 15.2581 3.58841 15.1384C3.74488 15.0187 3.92339 14.931 4.11376 14.8803C4.30412 14.8296 4.50261 14.8169 4.69788 14.8429C4.89316 14.8689 5.0814 14.9331 5.25185 15.0319L15.7498 21.1199C15.8257 21.1642 15.912 21.1875 15.9998 21.1875C16.0877 21.1875 16.174 21.1642 16.2498 21.1199L26.7478 15.0319C27.0921 14.8325 27.5015 14.7779 27.8859 14.8803C28.2704 14.9827 28.5984 15.2337 28.7978 15.5779C28.9973 15.9222 29.0518 16.3315 28.9494 16.716C28.847 17.1004 28.5961 17.4285 28.2518 17.6279L17.7558 23.7159C17.2224 24.0253 16.6166 24.1883 15.9998 24.1883C15.3831 24.1883 14.7773 24.0253 14.2438 23.7159L3.74785 17.6279C3.57721 17.5293 3.42768 17.3981 3.30778 17.2417C3.18789 17.0853 3.09998 16.9068 3.04909 16.7165C2.9982 16.5261 2.98532 16.3275 3.01119 16.1322C3.03706 15.9368 3.10316 15.7485 3.20185 15.5779ZM3.20185 22.5779C3.30059 22.4074 3.43195 22.2581 3.58841 22.1384C3.74488 22.0187 3.92339 21.931 4.11376 21.8803C4.30412 21.8296 4.50261 21.8169 4.69788 21.8429C4.89316 21.8689 5.0814 21.9331 5.25185 22.0319L15.7498 28.1199C15.8257 28.1642 15.912 28.1875 15.9998 28.1875C16.0877 28.1875 16.174 28.1642 16.2498 28.1199L26.7478 22.0319C27.0921 21.8325 27.5015 21.7779 27.8859 21.8803C28.2704 21.9827 28.5984 22.2337 28.7978 22.5779C28.9973 22.9222 29.0518 23.3315 28.9494 23.716C28.847 24.1004 28.5961 24.4285 28.2518 24.6279L17.7558 30.7159C17.2224 31.0253 16.6166 31.1883 15.9998 31.1883C15.3831 31.1883 14.7773 31.0253 14.2438 30.7159L3.74785 24.6279C3.57738 24.5292 3.42804 24.3978 3.30834 24.2413C3.18864 24.0849 3.10094 23.9064 3.05024 23.716C2.99954 23.5256 2.98683 23.3271 3.01284 23.1319C3.03886 22.9366 3.10308 22.7484 3.20185 22.5779Z" fill="white"/>
</svg>
