<svg width="16" height="16" viewBox="0 0 16 16" fill="none" xmlns="http://www.w3.org/2000/svg">
<path d="M7.122 0.391953C7.38875 0.237242 7.69164 0.155762 8 0.155762C8.30836 0.155762 8.61125 0.237242 8.878 0.391953L13.881 3.29395C14.711 3.77495 14.711 4.97395 13.881 5.45595L8.878 8.35795C8.61125 8.51266 8.30836 8.59414 8 8.59414C7.69164 8.59414 7.38875 8.51266 7.122 8.35795L2.119 5.45595C1.92995 5.34584 1.77307 5.18807 1.66404 4.99838C1.55501 4.8087 1.49763 4.59374 1.49763 4.37495C1.49763 4.15617 1.55501 3.94121 1.66404 3.75152C1.77307 3.56184 1.92995 3.40407 2.119 3.29395L7.122 0.391953ZM8.125 1.68995C8.08706 1.66781 8.04393 1.65615 8 1.65615C7.95607 1.65615 7.91294 1.66781 7.875 1.68995L3.245 4.37495L7.875 7.05995C7.91294 7.08209 7.95607 7.09376 8 7.09376C8.04393 7.09376 8.08706 7.08209 8.125 7.05995L12.755 4.37495L8.125 1.68995ZM1.601 7.78895C1.65037 7.70372 1.71605 7.62905 1.79428 7.5692C1.87252 7.50935 1.96177 7.4655 2.05695 7.44015C2.15214 7.4148 2.25138 7.40844 2.34902 7.42145C2.44665 7.43446 2.54077 7.46657 2.626 7.51595L7.875 10.56C7.91294 10.5821 7.95607 10.5938 8 10.5938C8.04393 10.5938 8.08706 10.5821 8.125 10.56L13.374 7.51595C13.5461 7.41623 13.7508 7.38897 13.943 7.44017C14.1353 7.49137 14.2993 7.61683 14.399 7.78895C14.4987 7.96108 14.526 8.16577 14.4748 8.35799C14.4236 8.55022 14.2981 8.71423 14.126 8.81395L8.878 11.858C8.61125 12.0127 8.30836 12.0941 8 12.0941C7.69164 12.0941 7.38875 12.0127 7.122 11.858L1.874 8.81395C1.78868 8.76466 1.71392 8.69905 1.65397 8.62085C1.59402 8.54266 1.55007 8.45341 1.52462 8.35823C1.49918 8.26304 1.49274 8.16377 1.50567 8.06609C1.5186 7.96841 1.55166 7.87424 1.601 7.78895ZM1.601 11.289C1.65037 11.2037 1.71605 11.129 1.79428 11.0692C1.87252 11.0094 1.96177 10.9655 2.05695 10.9401C2.15214 10.9148 2.25138 10.9084 2.34902 10.9215C2.44665 10.9345 2.54077 10.9666 2.626 11.016L7.875 14.06C7.91294 14.0821 7.95607 14.0938 8 14.0938C8.04393 14.0938 8.08706 14.0821 8.125 14.06L13.374 11.016C13.5461 10.9162 13.7508 10.889 13.943 10.9402C14.1353 10.9914 14.2993 11.1168 14.399 11.289C14.4987 11.4611 14.526 11.6658 14.4748 11.858C14.4236 12.0502 14.2981 12.2142 14.126 12.314L8.878 15.358C8.61125 15.5127 8.30836 15.5941 8 15.5941C7.69164 15.5941 7.38875 15.5127 7.122 15.358L1.874 12.314C1.78877 12.2646 1.71409 12.1989 1.65425 12.1207C1.5944 12.0424 1.55055 11.9532 1.5252 11.858C1.49984 11.7628 1.49349 11.6636 1.5065 11.5659C1.5195 11.4683 1.55162 11.3742 1.601 11.289Z" fill="white"/>
</svg>
